<svg width="32" height="32" viewBox="0 0 32 32" fill="none" xmlns="http://www.w3.org/2000/svg">
  <rect x="0.5" y="0.5" width="31" height="31" rx="11.5" stroke="#181818"/>
  <path d="M8.89343 17.5723L8.22644 18.208L7.80554 17.7656L7.58484 17.5332L7.63464 17.8496L7.64148 17.8945V17.8984C8.37991 21.7384 11.7002 24.6604 15.7245 24.7881H15.7264L15.9989 24.792H15.9999C17.8364 24.7919 19.6241 24.1986 21.0956 23.0996C22.5671 22.0005 23.6436 20.4545 24.1649 18.6934L24.1659 18.6914L24.2167 18.5049L25.1093 18.7344C24.5737 20.72 23.4056 22.4779 21.7782 23.7383C20.1244 25.0191 18.0917 25.7138 15.9999 25.7139C11.045 25.7138 6.98173 21.8933 6.59656 17.0371L6.57117 16.5635L6.56628 16.2793V15.1279L8.89343 17.5723ZM12.9393 11.7891C13.7482 11.7891 14.8573 12.2627 15.5057 13.2246C15.6191 13.3926 15.7212 13.5691 15.8114 13.75L15.8905 13.9092L15.9852 13.7588C16.1859 13.4407 16.4242 13.1476 16.6942 12.8857C17.5282 12.0801 18.7107 11.8465 19.5018 12.0146C19.7163 12.0602 19.8703 12.223 19.9628 12.4824C20.0557 12.7432 20.0806 13.0899 20.0419 13.4678C19.9641 14.2256 19.6332 15.0696 19.1425 15.543C18.7638 15.9088 18.2623 16.214 17.7469 16.4121C17.2304 16.6106 16.7091 16.698 16.2919 16.6396L16.202 16.627L16.1805 16.7148C15.7313 18.5406 15.7319 19.6523 16.5438 20.6377L16.5458 20.6406L16.6102 20.7139L15.9384 21.3438C15.4569 20.8063 15.174 20.235 15.0536 19.5713C14.9272 18.8743 14.9772 18.0715 15.1659 17.0957L15.1864 16.9873L15.077 16.9766C14.6592 16.9371 14.1749 16.7403 13.7196 16.4404C13.2654 16.1412 12.8472 15.7446 12.5575 15.3154C12.1763 14.7499 12.0277 13.8552 12.1093 13.0977C12.1499 12.7199 12.2473 12.3862 12.3925 12.1504C12.5367 11.9161 12.7202 11.7892 12.9393 11.7891ZM15.9823 6.56641C20.9378 6.56649 25.0002 10.3878 25.3856 15.2441L25.412 15.7168L25.4159 16.001V17.1533L23.0878 14.708L23.7548 14.0713L24.1766 14.5156L24.3983 14.748L24.3485 14.4316L24.3417 14.3857L24.3407 14.3828L24.2635 14.0254C23.3932 10.3628 20.1568 7.61635 16.2577 7.49316H16.2557L15.9833 7.48926H15.9823C14.1496 7.48939 12.3652 8.08099 10.8954 9.17578C9.42577 10.2705 8.34897 11.8106 7.8241 13.5664H7.82312V13.5674L7.77136 13.7529L6.87878 13.5215C7.4185 11.5416 8.58922 9.79066 10.2147 8.53516C11.8666 7.25928 13.895 6.56657 15.9823 6.56641ZM13.0995 12.8213L13.0741 12.9209V12.9238C13.0593 12.9894 13.0471 13.0605 13.037 13.1338L13.036 13.1357L13.0175 13.3027V13.3057C12.9726 13.8684 13.0731 14.431 13.3221 14.7998C13.5901 15.1969 14.0355 15.5432 14.412 15.7812C14.6013 15.9009 14.7765 15.9955 14.9081 16.0566C14.9734 16.087 15.0305 16.1101 15.0741 16.124C15.0951 16.1307 15.1173 16.1371 15.1376 16.1396C15.1474 16.1408 15.1631 16.1422 15.1796 16.1396C15.1937 16.1374 15.2297 16.1283 15.2538 16.0928C15.3257 15.9868 15.3586 15.8347 15.3651 15.667C15.3717 15.4958 15.351 15.2946 15.3065 15.0811C15.2176 14.6542 15.0286 14.1649 14.7421 13.7402C14.4337 13.2835 13.9624 12.9755 13.5292 12.8232L13.3466 12.7676L13.3446 12.7666L13.2216 12.7393L13.0995 12.7109V12.8213ZM19.0292 12.8848L18.9042 12.8867H18.9012C18.4084 12.9082 17.7881 13.1109 17.3348 13.5488C16.9661 13.9048 16.6795 14.3441 16.5038 14.7432C16.4159 14.9428 16.3542 15.1349 16.3251 15.3037C16.2965 15.4691 16.2964 15.6246 16.3446 15.7432C16.3608 15.7833 16.3949 15.7996 16.4081 15.8047C16.4236 15.8106 16.4383 15.8126 16.4481 15.8135C16.4686 15.8153 16.4916 15.8137 16.5135 15.8115C16.5591 15.807 16.62 15.7964 16.6903 15.7803C16.8317 15.7479 17.0224 15.6919 17.2323 15.6143C17.6501 15.4598 18.1581 15.2135 18.5028 14.8809V14.8799C18.8227 14.5705 19.0386 14.0416 19.1112 13.4814L19.1122 13.4785L19.1288 13.3125V13.3105C19.1344 13.2363 19.1362 13.1638 19.1356 13.0977V13.0938L19.1307 12.9805L19.1268 12.8828L19.0292 12.8848Z" fill="#9A999A" stroke="black" stroke-width="0.2"/>
</svg>
