<svg width="32" height="32" viewBox="0 0 32 32" fill="none" xmlns="http://www.w3.org/2000/svg">
  <rect width="32" height="32" rx="12" fill="url(#paint0_linear_2813_3396)"/>
  <g clip-path="url(#clip0_2813_3396)">
    <path d="M23.8335 15.6303L16.4027 8.20142C16.1797 7.97843 15.8198 7.97843 15.5968 8.20142L8.16797 15.6303C7.94499 15.8532 7.94499 16.2132 8.16797 16.4361C8.27946 16.5476 8.4242 16.6024 8.5709 16.6024C8.7176 16.6024 8.86235 16.5476 8.97384 16.4361L15.9998 9.40826L23.0276 16.4361C23.1391 16.5476 23.2839 16.6024 23.4306 16.6024C23.5773 16.6024 23.722 16.5476 23.8335 16.4361C24.0545 16.2132 24.0545 15.8532 23.8335 15.6303Z" fill="black"/>
    <path d="M21.1499 16.4087C20.835 16.4087 20.5807 16.663 20.5807 16.9779V22.8615H11.4208V16.9779C11.4208 16.663 11.1665 16.4087 10.8516 16.4087C10.5367 16.4087 10.2824 16.663 10.2824 16.9779V23.4307C10.2824 23.7456 10.5367 23.9999 10.8516 23.9999H21.1499C21.4648 23.9999 21.7191 23.7456 21.7191 23.4307V16.9779C21.7191 16.663 21.4628 16.4087 21.1499 16.4087Z" fill="black"/>
  </g>
  <defs>
    <linearGradient id="paint0_linear_2813_3396" x1="16" y1="0" x2="16" y2="32" gradientUnits="userSpaceOnUse">
      <stop stop-color="#86765E"/>
      <stop offset="0.658654" stop-color="#ECD0A5"/>
      <stop offset="1" stop-color="#FFF9EF"/>
    </linearGradient>
    <clipPath id="clip0_2813_3396">
      <rect width="16" height="16" fill="white" transform="translate(8 8)"/>
    </clipPath>
  </defs>
</svg>
