<svg width="32" height="32" viewBox="0 0 32 32" fill="none" xmlns="http://www.w3.org/2000/svg">
  <rect x="0.5" y="0.5" width="31" height="31" rx="11.5" stroke="#181818"/>
  <path d="M22.6426 7.9502C22.9553 7.95035 23.2494 8.12012 23.4639 8.36133C23.6784 8.60282 23.8192 8.92214 23.8193 9.23047V14.7695C23.8193 14.9287 23.8096 15.0906 23.7627 15.2139C23.7389 15.2764 23.7038 15.332 23.6533 15.3721C23.6022 15.4126 23.5385 15.4345 23.4619 15.4346C23.3731 15.4346 23.3012 15.416 23.2461 15.377C23.1907 15.3376 23.1569 15.2808 23.1367 15.2178C23.1169 15.1557 23.1087 15.0843 23.1055 15.0098C23.1022 14.935 23.1035 14.8522 23.1035 14.7695V9.23047C23.1034 9.1906 23.086 9.13469 23.0498 9.07031C23.0142 9.007 22.9629 8.94009 22.9043 8.87891C22.8457 8.81777 22.7806 8.76309 22.7158 8.72461C22.6503 8.68569 22.5887 8.66504 22.5381 8.66504H10.2305C10.073 8.66514 9.93135 8.74746 9.82812 8.8623C9.72448 8.9778 9.66515 9.11998 9.66504 9.23047V22.7695C9.66507 22.8714 9.67907 23.0187 9.72168 23.1387C9.76536 23.2616 9.83045 23.3348 9.92285 23.335H16.3848C16.5496 23.335 16.7136 23.3328 16.835 23.374C16.8975 23.3953 16.9531 23.4293 16.9922 23.4834C17.0312 23.5375 17.0498 23.6071 17.0498 23.6924C17.0498 23.7716 17.0291 23.8375 16.9883 23.8896C16.9479 23.9411 16.8907 23.975 16.8271 23.998C16.702 24.0433 16.5354 24.0498 16.3682 24.0498H10.0527C9.43571 24.0498 8.95022 23.5656 8.9502 22.9502V9.0498C8.95022 8.43409 9.43572 7.9502 10.0527 7.9502H22.6426ZM21.6133 16.5654C22.8587 16.5224 23.865 17.4153 23.9541 18.6572L23.9775 18.8008C23.9817 18.8456 23.9812 18.8873 23.9717 18.9258C23.9509 19.0092 23.8921 19.0689 23.792 19.1211C23.6248 19.2081 23.4535 19.1111 23.333 18.9756C23.2101 18.8372 23.1191 18.638 23.1045 18.4658L23.1035 18.4648C23.0633 17.8238 22.5152 17.2812 21.6152 17.2812C21.2973 17.2813 20.9248 17.4871 20.6289 17.7832C20.3329 18.0794 20.127 18.4524 20.127 18.7695V19.6416L24.0732 19.625H24.0742C24.3428 19.6251 24.5868 19.7522 24.7627 19.9375C24.9384 20.1226 25.0498 20.3697 25.0498 20.6152V23.0771C25.0498 23.3627 24.956 23.6065 24.7852 23.7793C24.6141 23.9522 24.3699 24.0498 24.0771 24.0498H19.1543C18.8395 24.0498 18.5915 23.9579 18.4229 23.7861C18.2545 23.6146 18.1709 23.3698 18.1709 23.0762V20.5566C18.1709 20.2943 18.2488 20.0617 18.4561 19.8965C18.6539 19.739 18.9622 19.6498 19.4111 19.6436V18.7695C19.4111 17.4799 20.3685 16.6083 21.6133 16.5654ZM19.4619 20.3574C19.1556 20.3574 18.8966 20.6042 18.8965 20.9229V22.7686C18.8965 22.8584 18.9505 23.0015 19.0527 23.123C19.1541 23.2435 19.2956 23.335 19.4619 23.335H23.7695C23.9121 23.3349 24.0537 23.2686 24.1602 23.1631C24.2667 23.0575 24.335 22.9151 24.335 22.7686V20.9229C24.3349 20.7777 24.2608 20.6366 24.1504 20.5303C24.0397 20.4237 23.8979 20.3575 23.7695 20.3574H19.4619Z" fill="#9A999A" stroke="#9A999A" stroke-width="0.1"/>
  <path d="M20.0768 10.7192C20.3055 10.7192 20.5488 10.8541 20.7321 11.0376C20.9153 11.221 21.0504 11.464 21.0505 11.6919V14.769H21.0495C21.0581 14.9313 21.0536 15.0931 21.0065 15.2163C20.9825 15.2792 20.9465 15.3351 20.8932 15.3745C20.8396 15.414 20.7724 15.4341 20.6921 15.4341C20.6057 15.434 20.5356 15.4156 20.4811 15.3765C20.4266 15.3372 20.3937 15.281 20.3727 15.2183C20.3322 15.0968 20.3347 14.933 20.3347 14.769V11.9995C20.3346 11.8665 20.2654 11.7244 20.1569 11.6147C20.0485 11.5053 19.9067 11.4341 19.7692 11.4341H12.9997C12.8684 11.4342 12.7263 11.5062 12.6159 11.6167C12.5057 11.7272 12.4344 11.8689 12.4343 11.9995V19.6919C12.4343 19.8302 12.4987 19.9719 12.6032 20.0796C12.7074 20.187 12.8484 20.2572 12.9997 20.2573H16.3845C16.527 20.2573 16.6888 20.2711 16.8161 20.3198C16.88 20.3443 16.9384 20.3796 16.9811 20.4282C17.0246 20.4778 17.0504 20.5399 17.0505 20.6147C17.0505 20.7065 17.0294 20.7798 16.988 20.8354C16.9465 20.8912 16.8881 20.9244 16.8239 20.9438C16.7603 20.9631 16.6876 20.9696 16.614 20.9722C16.5406 20.9747 16.4608 20.9731 16.3845 20.9731H12.9997C12.6813 20.9731 12.3634 20.8864 12.1237 20.7222C11.883 20.5572 11.7194 20.3115 11.7194 19.9995V11.6919C11.7195 11.4639 11.8545 11.221 12.0378 11.0376C12.221 10.8543 12.4636 10.7193 12.6921 10.7192H20.0768Z" fill="#9A999A" stroke="#9A999A" stroke-width="0.1"/>
</svg>
