<svg width="32" height="32" viewBox="0 0 32 32" fill="none" xmlns="http://www.w3.org/2000/svg">
  <rect x="0.5" y="0.5" width="31" height="31" rx="11.5" stroke="#181818"/>
  <path d="M15.7459 17.6355C13.0857 17.6355 10.9211 15.4709 10.9211 12.8107C10.9211 10.1504 13.0857 7.98584 15.7459 7.98584C18.4062 7.98584 20.5708 10.15 20.5708 12.8107C20.5708 15.4713 18.4066 17.6355 15.7459 17.6355ZM15.7459 8.73633C13.4994 8.73633 11.6716 10.5642 11.6716 12.8107C11.6716 15.0576 13.4994 16.8854 15.7459 16.8854C17.9928 16.8854 19.8207 15.0576 19.8207 12.8107C19.8207 10.5642 17.9928 8.73633 15.7459 8.73633ZM8.26006 24.4308H7.50959C7.50793 22.9376 7.94679 21.477 8.77124 20.232C9.59568 18.987 10.7691 18.0128 12.1445 17.4315L12.4374 18.122C11.1978 18.6461 10.1403 19.5242 9.39724 20.6464C8.6542 21.7686 8.25864 23.085 8.26006 24.4308Z" fill="#9A999A"/>
  <path d="M20.6261 20.0182C19.9833 19.2703 19.1865 18.6702 18.2902 18.2588C17.3939 17.8474 16.4193 17.6346 15.4331 17.6348V16.8843C17.6482 16.8843 19.7482 17.8478 21.195 19.5284L20.6261 20.0182ZM18.5269 20.5734H23.3525V21.3239H18.5269V20.5734ZM18.5269 22.6569H24V23.4074H18.5269V22.6569Z" fill="#9A999A"/>
</svg>
